name baseline.mot
datacolumns 19
datarows 29
range 5.98664800000000 6.03330800000000
endheader
time	ground_force1_vx	ground_force1_vy	ground_force1_vz	ground_force1_px	ground_force1_py	ground_force1_pz	ground_force2_vx	ground_force2_vy	ground_force2_vz	ground_force2_px	ground_force2_py	ground_force2_pz	ground_torque1_x	ground_torque1_y	ground_torque1_z	ground_torque2_x	ground_torque2_y	ground_torque2_z	
5.98664800000000	-3.03567900000000	45.77838000000000	-15.13201700000000	0.16920100000000	0.00000000000000	0.13463700000000	-67.19281300000000	765.59452099999999	-60.90299000000000	-0.04170200000000	0.00000000000000	-0.10225600000000	0.00000000000000	-5.88128700000000	0.00000000000000	0.00000000000000	-7.42019000000000	0.00000000000000	
5.98831300000000	-3.04705300000000	53.96178300000000	-16.96833700000000	0.17462600000000	0.00000000000000	0.13629900000000	-67.95011500000000	763.33953899999995	-60.57262900000000	-0.04244100000000	0.00000000000000	-0.10209400000000	0.00000000000000	-6.79076400000000	0.00000000000000	0.00000000000000	-7.52557400000000	0.00000000000000	
5.98997600000000	-2.92267600000000	62.32665500000000	-18.61985000000000	0.17952500000000	0.00000000000000	0.13778900000000	-68.72872700000001	760.97275999999999	-60.22288100000000	-0.04318000000000	0.00000000000000	-0.10192800000000	0.00000000000000	-7.66731300000000	0.00000000000000	0.00000000000000	-7.63980300000000	0.00000000000000	
5.99164100000000	-2.65276800000000	70.77067500000000	-20.04644800000000	0.18398600000000	0.00000000000000	0.13913800000000	-69.52763100000000	758.49053500000002	-59.85315800000000	-0.04391900000000	0.00000000000000	-0.10176000000000	0.00000000000000	-8.49220000000000	0.00000000000000	0.00000000000000	-7.76282300000000	0.00000000000000	
5.99331100000000	-2.23304300000000	79.21412200000000	-21.22188200000000	0.18807900000000	0.00000000000000	0.14036800000000	-70.34568400000001	755.88915299999996	-59.46288400000000	-0.04465800000000	0.00000000000000	-0.10158900000000	0.00000000000000	-9.25141200000000	0.00000000000000	0.00000000000000	-7.89454700000000	0.00000000000000	
5.99497600000000	-1.66439400000000	87.60258899999999	-22.13388400000000	0.19185900000000	0.00000000000000	0.14149700000000	-71.18161000000001	753.16484400000002	-59.05149800000000	-0.04539500000000	0.00000000000000	-0.10141600000000	0.00000000000000	-9.93603000000000	0.00000000000000	0.00000000000000	-8.03485700000000	0.00000000000000	
5.99665700000000	-0.95220300000000	95.90715800000000	-22.78312700000000	0.19537000000000	0.00000000000000	0.14253900000000	-72.03400700000000	750.31379900000002	-58.61846000000000	-0.04613000000000	0.00000000000000	-0.10123900000000	0.00000000000000	-10.54213000000000	0.00000000000000	0.00000000000000	-8.18360300000000	0.00000000000000	
5.99831000000000	-0.10541500000000	104.12244200000001	-23.18130300000000	0.19864800000000	0.00000000000000	0.14350600000000	-72.90134600000000	747.33217100000002	-58.16325000000000	-0.04686200000000	0.00000000000000	-0.10105900000000	0.00000000000000	-11.07028000000000	0.00000000000000	0.00000000000000	-8.34060000000000	0.00000000000000	
5.99998500000000	0.86453400000000	112.26302000000000	-23.34863000000000	0.20172000000000	0.00000000000000	0.14440900000000	-73.78197299999999	744.21609500000000	-57.68537600000000	-0.04759000000000	0.00000000000000	-0.10087700000000	0.00000000000000	-11.52477000000000	0.00000000000000	0.00000000000000	-8.50563000000000	0.00000000000000	
6.00164300000000	1.94479300000000	120.35884799999999	-23.31109300000000	0.20461100000000	0.00000000000000	0.14525400000000	-74.67410900000000	740.96169399999997	-57.18437700000000	-0.04831400000000	0.00000000000000	-0.10069100000000	0.00000000000000	-11.91265900000000	0.00000000000000	0.00000000000000	-8.67844300000000	0.00000000000000	
6.00330900000000	3.12210900000000	128.45020400000001	-23.09769100000000	0.20734100000000	0.00000000000000	0.14604800000000	-75.57585700000000	737.56509800000003	-56.65982300000000	-0.04903200000000	0.00000000000000	-0.10050200000000	0.00000000000000	-12.24276000000000	0.00000000000000	0.00000000000000	-8.85875200000000	0.00000000000000	
6.00498800000000	4.38369100000000	136.58265299999999	-22.73791600000000	0.20992700000000	0.00000000000000	0.14679800000000	-76.48520000000001	734.02245500000004	-56.11132100000000	-0.04974500000000	0.00000000000000	-0.10031000000000	0.00000000000000	-12.52466400000000	0.00000000000000	0.00000000000000	-9.04623700000000	0.00000000000000	
6.00664900000000	5.71789000000000	144.80244400000001	-22.25963000000000	0.21238100000000	0.00000000000000	0.14750700000000	-77.40001200000000	730.32994599999995	-55.53852100000000	-0.05045100000000	0.00000000000000	-0.10011600000000	0.00000000000000	-12.76786000000000	0.00000000000000	0.00000000000000	-9.24054600000000	0.00000000000000	
6.00831400000000	7.11467100000000	153.15260699999999	-21.68742300000000	0.21471600000000	0.00000000000000	0.14818000000000	-78.31805400000000	726.48380499999996	-54.94111500000000	-0.05115000000000	0.00000000000000	-0.09991800000000	0.00000000000000	-12.98102400000000	0.00000000000000	0.00000000000000	-9.44128900000000	0.00000000000000	
6.01000000000000	8.56587200000000	161.66995499999999	-21.04151900000000	0.21694200000000	0.00000000000000	0.14882000000000	-79.23698700000000	722.48033199999998	-54.31884400000000	-0.05184100000000	0.00000000000000	-0.09971600000000	0.00000000000000	-13.17148300000000	0.00000000000000	0.00000000000000	-9.64804700000000	0.00000000000000	
6.01165300000000	10.06527800000000	170.38302899999999	-20.33719200000000	0.21906600000000	0.00000000000000	0.14943000000000	-80.15437400000000	718.31591200000003	-53.67149800000000	-0.05252300000000	0.00000000000000	-0.09951200000000	0.00000000000000	-13.34488900000000	0.00000000000000	0.00000000000000	-9.86036500000000	0.00000000000000	
6.01331100000000	11.60852800000000	179.31100499999999	-19.58466900000000	0.22109800000000	0.00000000000000	0.15001300000000	-81.06768400000000	713.98703599999999	-52.99892400000000	-0.05319600000000	0.00000000000000	-0.09930500000000	0.00000000000000	-13.50507400000000	0.00000000000000	0.00000000000000	-10.07775800000000	0.00000000000000	
6.01497900000000	13.19289200000000	188.46344300000001	-18.78941900000000	0.22304100000000	0.00000000000000	0.15057100000000	-81.97430400000000	709.49032000000000	-52.30102400000000	-0.05385800000000	0.00000000000000	-0.09909400000000	0.00000000000000	-13.65406500000000	0.00000000000000	0.00000000000000	-10.29971000000000	0.00000000000000	
6.01664400000000	14.81696800000000	197.84076300000001	-17.95275100000000	0.22490300000000	0.00000000000000	0.15110600000000	-82.87154099999999	704.82252400000004	-51.57776100000000	-0.05451100000000	0.00000000000000	-0.09888000000000	0.00000000000000	-13.79224700000000	0.00000000000000	0.00000000000000	-10.52567200000000	0.00000000000000	
6.01831000000000	16.48032600000000	207.43527100000000	-17.07261700000000	0.22668600000000	0.00000000000000	0.15162000000000	-83.75663500000000	699.98057400000005	-50.82915900000000	-0.05515200000000	0.00000000000000	-0.09866300000000	0.00000000000000	-13.91861400000000	0.00000000000000	0.00000000000000	-10.75506900000000	0.00000000000000	
6.01998700000000	18.18313900000000	217.23255300000000	-16.14451600000000	0.22839600000000	0.00000000000000	0.15211400000000	-84.62676200000000	694.96158300000002	-50.05530800000000	-0.05578100000000	0.00000000000000	-0.09844300000000	0.00000000000000	-14.03108800000000	0.00000000000000	0.00000000000000	-10.98729800000000	0.00000000000000	
6.02164400000000	19.92583200000000	227.21307500000000	-15.16241700000000	0.23003400000000	0.00000000000000	0.15259000000000	-85.47904400000000	689.76287400000001	-49.25636500000000	-0.05639800000000	0.00000000000000	-0.09821900000000	0.00000000000000	-14.12685700000000	0.00000000000000	0.00000000000000	-11.22172900000000	0.00000000000000	
6.02331300000000	21.70877700000000	237.35383200000001	-14.11963800000000	0.23160500000000	0.00000000000000	0.15304800000000	-86.31056200000000	684.38199899999995	-48.43255500000000	-0.05700300000000	0.00000000000000	-0.09799200000000	0.00000000000000	-14.20272000000000	0.00000000000000	0.00000000000000	-11.45770700000000	0.00000000000000	
6.02499900000000	23.53202900000000	247.62990600000001	-13.00960400000000	0.23311000000000	0.00000000000000	0.15349000000000	-87.11835800000000	678.81676000000004	-47.58417200000000	-0.05759500000000	0.00000000000000	-0.09776200000000	0.00000000000000	-14.25539300000000	0.00000000000000	0.00000000000000	-11.69455700000000	0.00000000000000	
6.02664900000000	25.39514600000000	258.01585299999999	-11.82647500000000	0.23455200000000	0.00000000000000	0.15391700000000	-87.89944900000000	673.06522600000005	-46.71158400000000	-0.05817300000000	0.00000000000000	-0.09752900000000	0.00000000000000	-14.28177600000000	0.00000000000000	0.00000000000000	-11.93158000000000	0.00000000000000	
6.02830700000000	27.29705500000000	268.48684200000002	-10.56560500000000	0.23593100000000	0.00000000000000	0.15432900000000	-88.65083600000000	667.12575500000003	-45.81523000000000	-0.05873800000000	0.00000000000000	-0.09729300000000	0.00000000000000	-14.27915700000000	0.00000000000000	0.00000000000000	-12.16806100000000	0.00000000000000	
6.02998800000000	29.23600200000000	279.01951300000002	-9.22383900000000	0.23725000000000	0.00000000000000	0.15472800000000	-89.36951300000000	660.99700499999994	-44.89562600000000	-0.05929000000000	0.00000000000000	-0.09705300000000	0.00000000000000	-14.24536200000000	0.00000000000000	0.00000000000000	-12.40326600000000	0.00000000000000	
6.03165400000000	31.20954200000000	289.59255899999999	-7.79965500000000	0.23850900000000	0.00000000000000	0.15511400000000	-90.05247400000000	654.67795300000000	-43.95336000000000	-0.05982700000000	0.00000000000000	-0.09681000000000	0.00000000000000	-14.17883400000000	0.00000000000000	0.00000000000000	-12.63644900000000	0.00000000000000	
6.03330800000000	33.21458100000000	300.18702900000000	-6.29317100000000	0.23971000000000	0.00000000000000	0.15548800000000	-90.69673000000000	648.16790100000003	-42.98909800000000	-0.06035100000000	0.00000000000000	-0.09656400000000	0.00000000000000	-14.07866600000000	0.00000000000000	0.00000000000000	-12.86684800000000	0.00000000000000	
